<svg xmlns="http://www.w3.org/2000/svg" viewBox="0 0 92.32 34.28"><defs><style>.cls-1{fill:none;stroke:#888889;stroke-miterlimit:10;}</style></defs><title>Asset 4</title><g id="Layer_2" data-name="Layer 2"><g id="Objects"><g id="circles"><circle class="cls-1" cx="4.13" cy="4.13" r="3.63"/><circle class="cls-1" cx="18.14" cy="4.13" r="3.63"/><circle class="cls-1" cx="32.15" cy="4.13" r="3.63"/><circle class="cls-1" cx="46.16" cy="4.13" r="3.63"/><circle class="cls-1" cx="60.17" cy="4.13" r="3.63"/><circle class="cls-1" cx="74.17" cy="4.13" r="3.63"/><circle class="cls-1" cx="4.13" cy="17.14" r="3.63"/><circle class="cls-1" cx="18.14" cy="17.14" r="3.63"/><circle class="cls-1" cx="32.15" cy="17.14" r="3.63"/><circle class="cls-1" cx="46.16" cy="17.14" r="3.63"/><circle class="cls-1" cx="60.17" cy="17.14" r="3.63"/><circle class="cls-1" cx="74.17" cy="17.14" r="3.63"/><circle class="cls-1" cx="4.13" cy="30.15" r="3.63"/><circle class="cls-1" cx="18.14" cy="30.15" r="3.63"/><circle class="cls-1" cx="32.15" cy="30.15" r="3.63"/><circle class="cls-1" cx="46.16" cy="30.15" r="3.63"/><circle class="cls-1" cx="60.17" cy="30.15" r="3.63"/><circle class="cls-1" cx="88.18" cy="4.13" r="3.63"/><circle class="cls-1" cx="88.18" cy="17.14" r="3.63"/><circle class="cls-1" cx="88.18" cy="30.15" r="3.63"/><circle class="cls-1" cx="74.17" cy="30.15" r="3.63"/></g></g></g></svg>