<svg xmlns="http://www.w3.org/2000/svg" viewBox="0 0 7.74 128.39"><defs><style>.cls-1{fill:#888889;}</style></defs><title>Asset 1</title><g id="Layer_2" data-name="Layer 2"><g id="Objects"><g id="aero"><g id="down_aero_line" data-name="down aero line"><polygon class="cls-1" points="3.87 6.71 7.75 0 0 0 3.87 6.71"/><polygon class="cls-1" points="3.87 21.92 7.75 15.21 0 15.21 3.87 21.92"/><polygon class="cls-1" points="3.87 37.13 7.75 30.42 0 30.42 3.87 37.13"/><polygon class="cls-1" points="3.87 52.34 7.75 45.63 0 45.63 3.87 52.34"/><polygon class="cls-1" points="3.87 67.55 7.75 60.84 0 60.84 3.87 67.55"/><polygon class="cls-1" points="3.87 82.76 7.75 76.05 0 76.05 3.87 82.76"/><polygon class="cls-1" points="3.87 97.97 7.75 91.26 0 91.26 3.87 97.97"/><polygon class="cls-1" points="3.87 113.18 7.75 106.47 0 106.47 3.87 113.18"/><polygon class="cls-1" points="3.87 128.39 7.75 121.68 0 121.68 3.87 128.39"/></g></g></g></g></svg>