<svg xmlns="http://www.w3.org/2000/svg" viewBox="0 0 7.74 234.86"><defs><style>.cls-1{fill:#888889;}</style></defs><title>Asset 1</title><g id="Layer_2" data-name="Layer 2"><g id="Objects"><g id="aero"><g id="down_aero_line" data-name="down aero line"><polygon class="cls-1" points="3.87 6.71 7.75 0 0 0 3.87 6.71"/><polygon class="cls-1" points="3.87 21.92 7.75 15.21 0 15.21 3.87 21.92"/><polygon class="cls-1" points="3.87 37.13 7.75 30.42 0 30.42 3.87 37.13"/><polygon class="cls-1" points="3.87 52.34 7.75 45.63 0 45.63 3.87 52.34"/><polygon class="cls-1" points="3.87 67.55 7.75 60.84 0 60.84 3.87 67.55"/><polygon class="cls-1" points="3.87 82.76 7.75 76.05 0 76.05 3.87 82.76"/><polygon class="cls-1" points="3.87 97.97 7.75 91.26 0 91.26 3.87 97.97"/><polygon class="cls-1" points="3.87 113.18 7.75 106.47 0 106.47 3.87 113.18"/><polygon class="cls-1" points="3.87 128.39 7.75 121.68 0 121.68 3.87 128.39"/><polygon class="cls-1" points="3.87 143.6 7.75 136.89 0 136.89 3.87 143.6"/><polygon class="cls-1" points="3.87 158.81 7.75 152.1 0 152.1 3.87 158.81"/><polygon class="cls-1" points="3.87 174.02 7.75 167.31 0 167.31 3.87 174.02"/><polygon class="cls-1" points="3.87 189.23 7.75 182.52 0 182.52 3.87 189.23"/><polygon class="cls-1" points="3.87 204.44 7.75 197.74 0 197.74 3.87 204.44"/><polygon class="cls-1" points="3.87 219.65 7.75 212.94 0 212.94 3.87 219.65"/><polygon class="cls-1" points="3.87 234.86 7.75 228.16 0 228.16 3.87 234.86"/></g></g></g></g></svg>