<svg xmlns="http://www.w3.org/2000/svg" viewBox="0 0 213.54 60.55"><defs><style>.cls-1{fill:none;stroke:#888889;stroke-linejoin:round;stroke-width:2px;}</style></defs><title>Asset 2</title><g id="Layer_2" data-name="Layer 2"><g id="Objects"><g id="snake"><path class="cls-1" d="M212.54,51.41h0V9.14a8.14,8.14,0,0,0-16.27,0h0V51.41a8.14,8.14,0,1,1-16.27,0h0V9.14a8.14,8.14,0,0,0-16.27,0h0V51.41a8.14,8.14,0,1,1-16.27,0h0V9.14a8.14,8.14,0,0,0-16.27,0h0V51.41a8.14,8.14,0,1,1-16.27,0h0V9.14a8.14,8.14,0,0,0-16.27,0h0V51.41a8.14,8.14,0,1,1-16.27,0h0V9.14a8.14,8.14,0,0,0-16.27,0h0V51.41a8.14,8.14,0,1,1-16.27,0h0V9.14a8.14,8.14,0,0,0-16.27,0h0V51.41a8.14,8.14,0,1,1-16.27,0h0V9.14A8.14,8.14,0,0,0,1,9.14V51.69"/></g></g></g></svg>